<svg width="19" height="18" viewBox="0 0 19 18" fill="none" xmlns="http://www.w3.org/2000/svg">
<path fill-rule="evenodd" clip-rule="evenodd" d="M17.8034 2.18079C17.9611 2.18079 18.1103 2.25265 18.2089 2.37611C18.3074 2.4996 18.3446 2.66127 18.31 2.81557L16.7523 9.75595C16.699 9.99346 16.4886 10.1622 16.2457 10.1622H5.82152L6.2209 11.8973H16.2111C16.4978 11.8973 16.7303 12.1303 16.7303 12.4178C16.7303 12.7053 16.4978 12.9384 16.2111 12.9384H5.80781C5.56604 12.9384 5.35623 12.7711 5.30188 12.5349L2.6788 1.13971H0.841854C0.55512 1.13971 0.322632 0.906675 0.322632 0.619189C0.322632 0.331702 0.55512 0.0986328 0.841854 0.0986328H3.09185C3.33362 0.0986328 3.5434 0.265937 3.59778 0.502108L3.98422 2.18079H17.8034ZM5.58186 9.12115H15.8303L17.1543 3.2218H4.22388L5.58186 9.12115Z" fill="#443737"/>
<path fill-rule="evenodd" clip-rule="evenodd" d="M6.32263 15.9014C6.32263 14.8122 7.21985 13.926 8.32263 13.926C9.42545 13.926 10.3226 14.8122 10.3226 15.9014C10.3226 16.9906 9.42541 17.8768 8.32263 17.8768C7.21981 17.8768 6.32263 16.9906 6.32263 15.9014ZM7.41356 15.9014C7.41356 16.3965 7.82136 16.7993 8.32263 16.7993C8.82391 16.7993 9.2317 16.3965 9.2317 15.9014C9.2317 15.4063 8.82391 15.0035 8.32263 15.0035C7.82136 15.0035 7.41356 15.4063 7.41356 15.9014Z" fill="#443737"/>
<path fill-rule="evenodd" clip-rule="evenodd" d="M12.3226 15.9014C12.3226 14.8122 13.2199 13.926 14.3226 13.926C15.4254 13.926 16.3226 14.8122 16.3226 15.9014C16.3226 16.9906 15.4254 17.8768 14.3226 17.8768C13.2198 17.8768 12.3226 16.9906 12.3226 15.9014ZM13.4136 15.9014C13.4136 16.3965 13.8214 16.7993 14.3226 16.7993C14.8239 16.7993 15.2317 16.3965 15.2317 15.9014C15.2317 15.4063 14.8239 15.0035 14.3226 15.0035C13.8214 15.0035 13.4136 15.4063 13.4136 15.9014Z" fill="#443737"/>
</svg>
